<svg width="31" height="31" viewBox="0 0 31 31" fill="none" xmlns="http://www.w3.org/2000/svg">
<path d="M14.8542 28.4167C12.8736 28.4167 11.1944 27.7278 9.81667 26.35C8.43889 24.9722 7.75 23.2931 7.75 21.3125V7.75001C7.75 6.32918 8.2559 5.11286 9.26771 4.10105C10.2795 3.08925 11.4958 2.58334 12.9167 2.58334C14.3375 2.58334 15.5538 3.08925 16.5656 4.10105C17.5774 5.11286 18.0833 6.32918 18.0833 7.75001V20.0208C18.0833 20.925 17.7712 21.6892 17.1469 22.3136C16.5226 22.9379 15.7583 23.25 14.8542 23.25C13.95 23.25 13.1858 22.9379 12.5615 22.3136C11.9372 21.6892 11.625 20.925 11.625 20.0208V7.75001H13.5625V20.0208C13.5625 20.3868 13.6863 20.6936 13.9339 20.9412C14.1814 21.1887 14.4882 21.3125 14.8542 21.3125C15.2201 21.3125 15.5269 21.1887 15.7745 20.9412C16.022 20.6936 16.1458 20.3868 16.1458 20.0208V7.75001C16.1458 6.84584 15.8337 6.08161 15.2094 5.4573C14.5851 4.833 13.8208 4.52084 12.9167 4.52084C12.0125 4.52084 11.2483 4.833 10.624 5.4573C9.99965 6.08161 9.6875 6.84584 9.6875 7.75001V21.3125C9.6875 22.7333 10.1934 23.9497 11.2052 24.9615C12.217 25.9733 13.4333 26.4792 14.8542 26.4792C16.275 26.4792 17.4913 25.9733 18.5031 24.9615C19.5149 23.9497 20.0208 22.7333 20.0208 21.3125V7.75001H21.9583V21.3125C21.9583 23.2931 21.2694 24.9722 19.8917 26.35C18.5139 27.7278 16.8347 28.4167 14.8542 28.4167Z" fill="#1D1B20"/>
</svg>
