<svg width="23" height="25" viewBox="0 0 23 25" fill="none" xmlns="http://www.w3.org/2000/svg">
<path d="M18.7833 21.875L12.7458 15.3125C12.2667 15.7292 11.7156 16.059 11.0927 16.3021C10.4698 16.5451 9.80694 16.6667 9.10417 16.6667C7.36319 16.6667 5.88976 16.0113 4.68385 14.7005C3.47795 13.3898 2.875 11.7882 2.875 9.89583C2.875 8.00347 3.47795 6.40191 4.68385 5.09115C5.88976 3.78038 7.36319 3.125 9.10417 3.125C10.8451 3.125 12.3186 3.78038 13.5245 5.09115C14.7304 6.40191 15.3333 8.00347 15.3333 9.89583C15.3333 10.6597 15.2215 11.3802 14.9979 12.0573C14.7743 12.7344 14.4708 13.3333 14.0875 13.8542L20.125 20.4167L18.7833 21.875ZM9.10417 14.5833C10.3021 14.5833 11.3203 14.1276 12.1589 13.2161C12.9974 12.3047 13.4167 11.1979 13.4167 9.89583C13.4167 8.59375 12.9974 7.48698 12.1589 6.57552C11.3203 5.66406 10.3021 5.20833 9.10417 5.20833C7.90625 5.20833 6.88802 5.66406 6.04948 6.57552C5.21094 7.48698 4.79167 8.59375 4.79167 9.89583C4.79167 11.1979 5.21094 12.3047 6.04948 13.2161C6.88802 14.1276 7.90625 14.5833 9.10417 14.5833Z" fill="#AEAEB2"/>
</svg>
